<svg width="128" height="128" version="1.1" viewBox="0 0 33.867 33.867" xmlns="http://www.w3.org/2000/svg"><defs><linearGradient id="a" x1="4.222" x2="29.645" y1="16.933" y2="16.933" gradientUnits="userSpaceOnUse"><stop stop-color="#478cbf" offset="0"/><stop stop-color="#55a5d9" offset=".2"/><stop stop-color="#60b5ff" offset=".5"/><stop stop-color="#55a5d9" offset=".8"/><stop stop-color="#478cbf" offset="1"/></linearGradient></defs><g transform="translate(0 -263.13)"><path d="m16.933 267.33a12.7 12.7 0 0 0-12.7 12.7h25.4a12.7 12.7 0 0 0-12.7-12.7z" fill="#fff" stroke="url(#a)" stroke-linecap="round" stroke-linejoin="round" stroke-width="1.0583"/><path d="m16.933 267.33a12.7 12.7 0 0 0-12.7 12.7h12.7zm0 0a12.7 12.7 0 0 1 12.7 12.7h-12.7z" fill="#fff"/><path d="m16.933 267.33a12.7 12.7 0 0 0-12.7 12.7h12.7zm0 0a12.7 12.7 0 0 1 12.7 12.7h-12.7z" opacity=".5"/><path d="m16.933 272.09a7.938 7.938 0 0 0-7.938 7.938h15.875a7.938 7.938 0 0 0-7.938-7.938z" fill="#fff" stroke="url(#a)" stroke-linecap="round" stroke-linejoin="round" stroke-width="1.0583"/><path d="m16.933 272.09a7.938 7.938 0 0 0-7.938 7.938h7.938zm0 0a7.938 7.938 0 0 1 7.938 7.938h-7.938z" fill="#fff"/><path d="m16.933 272.09a7.938 7.938 0 0 0-7.938 7.938h7.938zm0 0a7.938 7.938 0 0 1 7.938 7.938h-7.938z" opacity=".5"/><g fill="#fff"><path d="m16.933 282.12a2.117 2.117 0 0 0-2.116 2.116h4.233a2.117 2.117 0 0 0-2.116-2.116z"/><path d="m16.933 282.12a2.117 2.117 0 0 0-2.116 2.116h2.116zm0 0a2.117 2.117 0 0 1 2.116 2.116h-2.116z" opacity=".5"/></g><path d="m13.229 292.17v1.058h7.408v-1.058zm0 1.588v1.058h7.408v-1.058zm0 1.587v1.058h7.408v-1.058z" fill="#fff" opacity=".5" stroke-width=".26458"/><path d="m4.233 280.07a12.7 12.7 0 0 0 12.7 12.7 12.7 12.7 0 0 0 12.7-12.7z" fill="#fff" stroke="url(#a)" stroke-linecap="round" stroke-linejoin="round" stroke-width="1.0583"/><path d="m4.233 280.07a12.7 12.7 0 0 0 12.7 12.7v-12.7zm12.7 0a12.7 12.7 0 0 1 12.7 12.7v-12.7z" fill="#fff"/><path d="m4.233 280.07a12.7 12.7 0 0 0 12.7 12.7v-12.7zm12.7 0a12.7 12.7 0 0 1 12.7 12.7v-12.7z" opacity=".5"/></g></svg>